<svg width="7" height="5" viewBox="0 0 7 5" fill="none" xmlns="http://www.w3.org/2000/svg">
<path d="M6.80358 0.932311C6.67916 0.813046 6.51086 0.746103 6.33543 0.746103C6.16 0.746103 6.125 0.746094 6.125 0.746094L3.4834 0.746103L0.875 0.746099C0.875 0.746099 0.839995 0.746103 0.664566 0.746103C0.489137 0.746103 0.320836 0.813046 0.196421 0.932311C0.134182 0.99184 0.084781 1.06266 0.0510688 1.1407C0.0173566 1.21873 0 1.30242 0 1.38696C0 1.47149 0.0173566 1.55519 0.0510688 1.63322C0.084781 1.71125 0.134182 1.78208 0.196421 1.84161L3.01193 4.55668C3.07366 4.6167 3.14711 4.66434 3.22803 4.69685C3.30894 4.72936 3.39574 4.74609 3.4834 4.74609C3.57106 4.74609 3.65785 4.72936 3.73877 4.69685C3.81969 4.66434 3.89313 4.6167 3.95486 4.55668L6.80358 1.84161C6.86582 1.78208 6.91522 1.71125 6.94893 1.63322C6.98264 1.55519 7 1.47149 7 1.38696C7 1.30242 6.98264 1.21873 6.94893 1.1407C6.91522 1.06266 6.86582 0.99184 6.80358 0.932311Z" fill="#646B7D"/>
</svg>
