<svg width="199" height="30" viewBox="0 0 199 30" fill="none" xmlns="http://www.w3.org/2000/svg">
<path d="M7.22268 7.31543C7.22268 7.31543 2.33769 2.50925 0 0H14.4454L7.22268 7.31543Z" fill="#9CB8BE"/>
<path d="M7.22268 21.9465C7.22268 21.9465 2.33769 26.7527 0 29.262H14.4454L7.22268 21.9465Z" fill="#B6BFBF"/>
<path d="M21.6682 7.31543C21.6682 7.31543 16.7832 2.50925 14.4455 0H28.8909L21.6682 7.31543Z" fill="#0076C4"/>
<path d="M36.1137 7.31543C36.1137 7.31543 31.2287 2.50925 28.8911 0H43.3365L36.1137 7.31543Z" fill="#963648"/>
<path d="M36.1137 21.9465C36.1137 21.9465 31.2287 26.7527 28.8911 29.262H43.3365L36.1137 21.9465Z" fill="#DE1E1B"/>
<path d="M21.6682 21.9465C21.6682 21.9465 16.7832 26.7527 14.4455 29.262H28.8909L21.6682 21.9465Z" fill="#0C6BAF"/>
<path d="M21.6682 7.31567C21.6682 7.31567 16.7832 12.1219 14.4455 14.6311H28.8909L21.6682 7.31567Z" fill="#FEFEFE"/>
<path d="M36.1137 7.31567C36.1137 7.31567 31.2287 12.1219 28.8911 14.6311H43.3365L36.1137 7.31567Z" fill="#00CAFD"/>
<path d="M50.559 7.31567C50.559 7.31567 45.6741 12.1219 43.3364 14.6311H57.7818L50.559 7.31567Z" fill="#FA2024"/>
<path d="M21.6682 21.9463C21.6682 21.9463 16.7832 17.1401 14.4455 14.6309H28.8909L21.6682 21.9463Z" fill="#D3DADB"/>
<path d="M36.1137 21.9463C36.1137 21.9463 31.2287 17.1401 28.8911 14.6309H43.3365L36.1137 21.9463Z" fill="#00B5FD"/>
<path d="M50.559 21.9463C50.559 21.9463 45.6741 17.1401 43.3364 14.6309H57.7818L50.559 21.9463Z" fill="#D61D1A"/>
<path d="M7.22321 7.31541C7.22321 7.31541 11.9685 2.36771 14.4459 0V14.6308L7.22321 7.31541Z" fill="#CED3D3"/>
<path d="M7.22321 21.9463C7.22321 21.9463 11.9685 26.894 14.4459 29.2617V14.6309L7.22321 21.9463Z" fill="#CFD4D7"/>
<path d="M21.6682 7.31544C21.6682 7.31544 16.923 12.2631 14.4455 14.6309V0L21.6682 7.31544Z" fill="#EBEDEF"/>
<path d="M21.6682 21.9463C21.6682 21.9463 16.923 16.9986 14.4455 14.6309V29.2617L21.6682 21.9463Z" fill="#DBDFE1"/>
<path d="M21.6687 7.31544C21.6687 7.31544 26.414 12.2631 28.8915 14.6309V0L21.6687 7.31544Z" fill="#00B5FD"/>
<path d="M36.1138 7.31544C36.1138 7.31544 31.3685 12.2631 28.8911 14.6309V0L36.1138 7.31544Z" fill="#00B5FD"/>
<path d="M21.6687 21.9463C21.6687 21.9463 26.414 16.9986 28.8915 14.6309V29.2617L21.6687 21.9463Z" fill="#0076C4"/>
<path d="M36.1143 21.9463C36.1143 21.9463 40.8596 16.9986 43.337 14.6309V29.2617L36.1143 21.9463Z" fill="#A91717"/>
<path d="M36.1143 7.31543C36.1143 7.31543 40.8596 2.36771 43.337 0V14.6309L36.1143 7.31543Z" fill="#DE1E1B"/>
<path d="M50.5591 7.31543C50.5591 7.31543 45.8138 2.36771 43.3364 0V14.6309L50.5591 7.31543Z" fill="#F22428"/>
<path d="M50.5591 21.9463C50.5591 21.9463 45.8138 16.9985 43.3364 14.6309V29.2617L50.5591 21.9463Z" fill="#D61D1A"/>
<path d="M36.1138 21.9463C36.1138 21.9463 31.3685 16.9986 28.8911 14.6309V29.2617L36.1138 21.9463Z" fill="#00A5E6"/>
<path d="M66.5409 8.45351H65.8976C65.8146 8.45351 65.7731 8.41534 65.7731 8.33907V1.12892C65.7731 1.05262 65.8146 1.01447 65.8976 1.01447H66.6862C66.7484 1.01447 66.7932 1.04222 66.8211 1.09771L68.4293 4.03171C68.7062 4.54498 68.9825 5.09294 69.2594 5.67558H69.2905C69.5811 5.06519 69.858 4.52071 70.1206 4.04211L71.7393 1.09771C71.76 1.04222 71.8047 1.01447 71.8741 1.01447H72.6627C72.7386 1.01447 72.7768 1.05262 72.7768 1.12892V8.33907C72.7768 8.41534 72.7386 8.45351 72.6627 8.45351H72.009C71.9332 8.45351 71.8949 8.41534 71.8949 8.33907V5.19698C71.8949 4.49643 71.9156 3.55658 71.9571 2.37743L71.9364 2.36702C71.7632 2.71383 71.4487 3.32422 70.9922 4.19817L69.6952 6.61196C69.6608 6.66743 69.6122 6.69519 69.5499 6.69519H69C68.9306 6.69519 68.8859 6.66743 68.8651 6.61196L67.5681 4.19817C67.1667 3.44907 66.8522 2.83868 66.6239 2.36702L66.6032 2.37743C66.6375 3.84789 66.655 4.78775 66.655 5.19698V8.33907C66.655 8.41534 66.6168 8.45351 66.5409 8.45351ZM75.5115 5.08254V7.64198H79.0809C79.1567 7.64198 79.195 7.68015 79.195 7.75643V8.33907C79.195 8.41534 79.1567 8.45351 79.0809 8.45351H74.7437C74.6607 8.45351 74.6192 8.41534 74.6192 8.33907V1.12892C74.6192 1.05262 74.6607 1.01447 74.7437 1.01447H78.9356C79.0115 1.01447 79.0497 1.05262 79.0497 1.12892V1.71156C79.0497 1.78785 79.0115 1.826 78.9356 1.826H75.5115V4.2606H78.6969C78.7728 4.2606 78.8111 4.30222 78.8111 4.38545V4.95768C78.8111 5.04092 78.7728 5.08254 78.6969 5.08254H75.5115ZM89.0113 8.45351H88.1708C88.1086 8.45351 88.0638 8.42926 88.0359 8.38068L85.5561 4.9889L84.9024 5.7276V8.33907C84.9024 8.41534 84.8609 8.45351 84.7779 8.45351H84.145C84.0619 8.45351 84.0204 8.41534 84.0204 8.33907V5.7276L83.3668 4.9889L80.8869 8.38068C80.8597 8.42926 80.811 8.45351 80.7417 8.45351H79.9116C79.8636 8.45351 79.8325 8.43966 79.8182 8.4119C79.8046 8.38413 79.8117 8.34947 79.8389 8.30785L82.8065 4.33343L80.0568 1.16013C79.9881 1.06303 80.0121 1.01447 80.1295 1.01447H80.9492C81.0186 1.01447 81.0672 1.03875 81.0944 1.0873L84.0204 4.61434V1.12892C84.0204 1.05262 84.0619 1.01447 84.145 1.01447H84.7779C84.8609 1.01447 84.9024 1.05262 84.9024 1.12892V4.61434C84.9997 4.49643 85.975 3.32075 87.8284 1.0873C87.8563 1.03875 87.9049 1.01447 87.9737 1.01447H88.7934C88.8491 1.01447 88.8803 1.02834 88.8867 1.05609C88.901 1.08384 88.8906 1.11851 88.8556 1.16013L86.1164 4.33343L89.0839 8.30785C89.1118 8.34947 89.1189 8.38413 89.1046 8.4119C89.091 8.43966 89.0599 8.45351 89.0113 8.45351ZM90.0904 9.8789H89.4574C89.3744 9.8789 89.3329 9.83728 89.3329 9.75405V7.74602C89.3329 7.66975 89.3744 7.63158 89.4574 7.63158H89.7479C90.0106 7.54139 90.2181 7.30209 90.3705 6.91368C90.5229 6.52528 90.6507 5.88711 90.7544 4.9993C90.8653 4.10454 90.9619 2.81787 91.0449 1.13932C91.0449 1.05609 91.0864 1.01447 91.1694 1.01447H95.0812C95.1642 1.01447 95.2057 1.05262 95.2057 1.12892V7.63158H95.8179C95.9009 7.63158 95.9424 7.66975 95.9424 7.74602V9.75405C95.9424 9.83728 95.9009 9.8789 95.8179 9.8789H95.1849C95.1019 9.8789 95.0604 9.83728 95.0604 9.75405V8.45351H90.2149V9.75405C90.2149 9.83728 90.1734 9.8789 90.0904 9.8789ZM91.9061 1.826C91.8439 3.60167 91.7473 4.92301 91.6156 5.79002C91.4911 6.65702 91.2868 7.27088 91.0034 7.63158H94.3134V1.826H91.9061ZM98.5338 8.45351H97.8178C97.7205 8.45351 97.6933 8.40845 97.7348 8.31826L98.7517 6.09175L96.3444 1.14973C96.3029 1.05955 96.3302 1.01447 96.4274 1.01447H97.1538C97.2225 1.01447 97.2711 1.04568 97.299 1.10811L99.1978 5.16577L100.92 1.10811C100.941 1.04568 100.986 1.01447 101.055 1.01447H101.771C101.813 1.01447 101.84 1.02834 101.854 1.05609C101.875 1.08384 101.878 1.11505 101.864 1.14973L98.679 8.35988C98.644 8.4223 98.596 8.45351 98.5338 8.45351ZM107.196 4.271V1.12892C107.196 1.05262 107.238 1.01447 107.321 1.01447H107.964C108.04 1.01447 108.078 1.05262 108.078 1.12892V8.33907C108.078 8.41534 108.04 8.45351 107.964 8.45351H107.321C107.238 8.45351 107.196 8.41534 107.196 8.33907V5.08254H103.731V8.33907C103.731 8.41534 103.693 8.45351 103.617 8.45351H102.973C102.89 8.45351 102.849 8.41534 102.849 8.33907V1.12892C102.849 1.05262 102.89 1.01447 102.973 1.01447H103.617C103.693 1.01447 103.731 1.05262 103.731 1.12892V4.271H107.196ZM109.88 8.45351H109.185C109.102 8.45351 109.07 8.40845 109.091 8.31826L111.675 1.10811C111.696 1.04568 111.737 1.01447 111.799 1.01447H112.619C112.688 1.01447 112.733 1.04568 112.754 1.10811L115.327 8.31826C115.362 8.40845 115.33 8.45351 115.234 8.45351H114.539C114.469 8.45351 114.424 8.4223 114.404 8.35988L113.771 6.50792H110.658L110.015 8.35988C109.994 8.4223 109.949 8.45351 109.88 8.45351ZM112.194 2.00288L110.928 5.68598H113.501L112.235 2.00288H112.194ZM116.459 1.01447H118.96C119.777 1.01447 120.409 1.22949 120.859 1.65954C121.309 2.08958 121.533 2.68609 121.533 3.44907C121.533 4.21898 121.309 4.81896 120.859 5.249C120.409 5.67904 119.777 5.89407 118.96 5.89407H117.227V8.33907C117.227 8.41534 117.19 8.45351 117.113 8.45351H116.459C116.384 8.45351 116.345 8.41534 116.345 8.33907V1.12892C116.345 1.05262 116.384 1.01447 116.459 1.01447ZM117.227 5.07213H118.867C120.05 5.07213 120.641 4.53111 120.641 3.44907C120.641 2.37396 120.05 1.83641 118.867 1.83641H117.227V5.07213ZM128.236 5.84205C128.236 6.68134 127.984 7.34722 127.479 7.83966C126.974 8.32522 126.282 8.56796 125.403 8.56796C124.525 8.56796 123.833 8.32522 123.328 7.83966C122.824 7.34722 122.571 6.68134 122.571 5.84205V3.64675C122.571 2.7936 122.824 2.12426 123.328 1.63873C123.833 1.14626 124.525 0.900024 125.403 0.900024C126.282 0.900024 126.974 1.14626 127.479 1.63873C127.984 2.12426 128.236 2.7936 128.236 3.64675V5.84205ZM123.463 5.84205C123.463 6.43164 123.633 6.89288 123.972 7.22581C124.311 7.55875 124.788 7.72522 125.403 7.72522C126.02 7.72522 126.493 7.55875 126.825 7.22581C127.164 6.89288 127.333 6.43164 127.333 5.84205V3.64675C127.333 3.03636 127.164 2.56471 126.825 2.23177C126.493 1.89189 126.02 1.72196 125.403 1.72196C124.788 1.72196 124.311 1.89189 123.972 2.23177C123.633 2.56471 123.463 3.03636 123.463 3.64675V5.84205ZM129.669 9.8789H129.036C128.953 9.8789 128.911 9.83728 128.911 9.75405V7.74602C128.911 7.66975 128.953 7.63158 129.036 7.63158H129.326C129.59 7.54139 129.797 7.30209 129.949 6.91368C130.101 6.52528 130.229 5.88711 130.333 4.9993C130.444 4.10454 130.54 2.81787 130.623 1.13932C130.623 1.05609 130.665 1.01447 130.748 1.01447H134.659C134.742 1.01447 134.784 1.05262 134.784 1.12892V7.63158H135.396C135.479 7.63158 135.521 7.66975 135.521 7.74602V9.75405C135.521 9.83728 135.479 9.8789 135.396 9.8789H134.763C134.68 9.8789 134.639 9.83728 134.639 9.75405V8.45351H129.793V9.75405C129.793 9.83728 129.752 9.8789 129.669 9.8789ZM131.484 1.826C131.422 3.60167 131.326 4.92301 131.194 5.79002C131.069 6.65702 130.866 7.27088 130.582 7.63158H133.892V1.826H131.484ZM141.192 4.271V1.12892C141.192 1.05262 141.233 1.01447 141.316 1.01447H141.96C142.035 1.01447 142.074 1.05262 142.074 1.12892V8.33907C142.074 8.41534 142.035 8.45351 141.96 8.45351H141.316C141.233 8.45351 141.192 8.41534 141.192 8.33907V5.08254H137.726V8.33907C137.726 8.41534 137.688 8.45351 137.612 8.45351H136.969C136.886 8.45351 136.844 8.41534 136.844 8.33907V1.12892C136.844 1.05262 136.886 1.01447 136.969 1.01447H137.612C137.688 1.01447 137.726 1.05262 137.726 1.12892V4.271H141.192ZM149.323 5.84205C149.323 6.68134 149.07 7.34722 148.565 7.83966C148.06 8.32522 147.369 8.56796 146.49 8.56796C145.611 8.56796 144.92 8.32522 144.415 7.83966C143.91 7.34722 143.657 6.68134 143.657 5.84205V3.64675C143.657 2.7936 143.91 2.12426 144.415 1.63873C144.92 1.14626 145.611 0.900024 146.49 0.900024C147.369 0.900024 148.06 1.14626 148.565 1.63873C149.07 2.12426 149.323 2.7936 149.323 3.64675V5.84205ZM144.55 5.84205C144.55 6.43164 144.719 6.89288 145.058 7.22581C145.397 7.55875 145.875 7.72522 146.49 7.72522C147.105 7.72522 147.579 7.55875 147.911 7.22581C148.251 6.89288 148.42 6.43164 148.42 5.84205V3.64675C148.42 3.03636 148.251 2.56471 147.911 2.23177C147.579 1.89189 147.105 1.72196 146.49 1.72196C145.875 1.72196 145.397 1.89189 145.058 2.23177C144.719 2.56471 144.55 3.03636 144.55 3.64675V5.84205ZM151.8 5.08254V7.64198H155.37C155.446 7.64198 155.484 7.68015 155.484 7.75643V8.33907C155.484 8.41534 155.446 8.45351 155.37 8.45351H151.033C150.95 8.45351 150.908 8.41534 150.908 8.33907V1.12892C150.908 1.05262 150.95 1.01447 151.033 1.01447H155.225C155.301 1.01447 155.339 1.05262 155.339 1.12892V1.71156C155.339 1.78785 155.301 1.826 155.225 1.826H151.8V4.2606H154.986C155.062 4.2606 155.1 4.30222 155.1 4.38545V4.95768C155.1 5.04092 155.062 5.08254 154.986 5.08254H151.8ZM65.7316 18.2075H65.0364C64.9534 18.2075 64.9223 18.1624 64.943 18.0722L67.5266 10.8621C67.5474 10.7997 67.5889 10.7685 67.6511 10.7685H68.4708C68.5402 10.7685 68.585 10.7997 68.6057 10.8621L71.179 18.0722C71.2133 18.1624 71.1822 18.2075 71.0856 18.2075H70.3904C70.321 18.2075 70.2762 18.1763 70.2555 18.1139L69.6226 16.2619H66.5098L65.8665 18.1139C65.8457 18.1763 65.801 18.2075 65.7316 18.2075ZM68.0454 11.7569L66.7796 15.44H69.3528L68.0869 11.7569H68.0454ZM72.9649 18.2075H72.3216C72.2386 18.2075 72.1971 18.1693 72.1971 18.0931V10.8829C72.1971 10.8066 72.2386 10.7685 72.3216 10.7685H76.3163C76.3993 10.7685 76.4408 10.8066 76.4408 10.8829V11.4655C76.4408 11.5418 76.3993 11.58 76.3163 11.58H73.0894V18.0931C73.0894 18.1693 73.0479 18.2075 72.9649 18.2075ZM78.3792 14.8365V17.396H81.9485C82.0244 17.396 82.0626 17.4341 82.0626 17.5104V18.0931C82.0626 18.1693 82.0244 18.2075 81.9485 18.2075H77.6114C77.5284 18.2075 77.4869 18.1693 77.4869 18.0931V10.8829C77.4869 10.8066 77.5284 10.7685 77.6114 10.7685H81.8026C81.8791 10.7685 81.9174 10.8066 81.9174 10.8829V11.4655C81.9174 11.5418 81.8791 11.58 81.8026 11.58H78.3792V14.0146H81.5646C81.6405 14.0146 81.6787 14.0562 81.6787 14.1394V14.7117C81.6787 14.7949 81.6405 14.8365 81.5646 14.8365H78.3792ZM87.8427 14.025V10.8829C87.8427 10.8066 87.8842 10.7685 87.9672 10.7685H88.6105C88.6864 10.7685 88.7246 10.8066 88.7246 10.8829V18.0931C88.7246 18.1693 88.6864 18.2075 88.6105 18.2075H87.9672C87.8842 18.2075 87.8427 18.1693 87.8427 18.0931V14.8365H84.3771V18.0931C84.3771 18.1693 84.3389 18.2075 84.263 18.2075H83.6197C83.5367 18.2075 83.4952 18.1693 83.4952 18.0931V10.8829C83.4952 10.8066 83.5367 10.7685 83.6197 10.7685H84.263C84.3389 10.7685 84.3771 10.8066 84.3771 10.8829V14.025H87.8427ZM89.8828 10.7685H95.2161C95.2991 10.7685 95.3406 10.8066 95.3406 10.8829V11.4655C95.3406 11.5418 95.2991 11.58 95.2161 11.58H92.9956V18.0931C92.9956 18.1693 92.9541 18.2075 92.8711 18.2075H92.2278C92.1448 18.2075 92.1033 18.1693 92.1033 18.0931V11.58H89.8828C89.807 11.58 89.7687 11.5418 89.7687 11.4655V10.8829C89.7687 10.8066 89.807 10.7685 89.8828 10.7685ZM101.077 17.5312C100.441 18.0584 99.6556 18.322 98.7218 18.322C97.9268 18.322 97.2731 18.1 96.7608 17.6561C96.2491 17.2052 95.993 16.5706 95.993 15.7521V13.2343C95.993 12.4089 96.2459 11.7742 96.7504 11.3303C97.2627 10.8795 97.9125 10.654 98.7011 10.654C99.5247 10.654 100.261 10.8968 100.911 11.3823C100.967 11.4239 100.973 11.4759 100.932 11.5384L100.6 12.0274C100.558 12.0828 100.5 12.0898 100.423 12.0482C99.9118 11.6736 99.334 11.4864 98.6907 11.4864C98.1096 11.4864 97.6602 11.6424 97.3418 11.9545C97.0305 12.2667 96.8749 12.6932 96.8749 13.2343V15.7417C96.8749 16.2827 97.0344 16.7093 97.3522 17.0214C97.6706 17.3335 98.12 17.4896 98.7011 17.4896C99.4209 17.4896 100.057 17.2746 100.61 16.8445C100.666 16.7891 100.718 16.7995 100.766 16.8758L101.108 17.3544C101.15 17.4306 101.139 17.4896 101.077 17.5312ZM101.647 10.7685H106.98C107.063 10.7685 107.105 10.8066 107.105 10.8829V11.4655C107.105 11.5418 107.063 11.58 106.98 11.58H104.76V18.0931C104.76 18.1693 104.718 18.2075 104.635 18.2075H103.992C103.909 18.2075 103.868 18.1693 103.868 18.0931V11.58H101.647C101.571 11.58 101.533 11.5418 101.533 11.4655V10.8829C101.533 10.8066 101.571 10.7685 101.647 10.7685ZM113.015 12.7245C113.015 13.0712 112.935 13.3799 112.776 13.6504C112.624 13.914 112.409 14.1117 112.133 14.2435C112.513 14.3822 112.807 14.6111 113.015 14.9302C113.222 15.2423 113.326 15.6168 113.326 16.0538C113.326 16.7335 113.101 17.2642 112.651 17.6457C112.209 18.0202 111.583 18.2075 110.773 18.2075H108.273C108.19 18.2075 108.148 18.1693 108.148 18.0931V10.8829C108.148 10.8066 108.19 10.7685 108.273 10.7685H110.784C111.51 10.7685 112.063 10.9453 112.444 11.2991C112.824 11.6459 113.015 12.121 113.015 12.7245ZM109.03 17.4064H110.784C111.309 17.4064 111.714 17.2954 111.998 17.0734C112.288 16.8445 112.434 16.5047 112.434 16.0538C112.434 15.6307 112.299 15.2978 112.029 15.055C111.766 14.8053 111.371 14.6805 110.846 14.6805H109.03V17.4064ZM112.122 12.7245C112.122 12.3638 112.008 12.0828 111.78 11.8817C111.552 11.6736 111.22 11.5696 110.784 11.5696H109.03V13.8793H110.846C111.24 13.8793 111.552 13.7822 111.78 13.588C112.008 13.3938 112.122 13.106 112.122 12.7245ZM120.16 15.596C120.16 16.4353 119.908 17.1012 119.403 17.5937C118.898 18.0792 118.206 18.322 117.328 18.322C116.45 18.322 115.758 18.0792 115.253 17.5937C114.748 17.1012 114.495 16.4353 114.495 15.596V13.4007C114.495 12.5476 114.748 11.8783 115.253 11.3927C115.758 10.9003 116.45 10.654 117.328 10.654C118.206 10.654 118.898 10.9003 119.403 11.3927C119.908 11.8783 120.16 12.5476 120.16 13.4007V15.596ZM115.387 15.596C115.387 16.1856 115.557 16.6469 115.896 16.9798C116.235 17.3127 116.712 17.4792 117.328 17.4792C117.944 17.4792 118.417 17.3127 118.749 16.9798C119.088 16.6469 119.258 16.1856 119.258 15.596V13.4007C119.258 12.7903 119.088 12.3187 118.749 11.9858C118.417 11.6459 117.944 11.476 117.328 11.476C116.712 11.476 116.235 11.6459 115.896 11.9858C115.557 12.3187 115.387 12.7903 115.387 13.4007V15.596ZM67.1116 27.9615H65.8042C65.6797 27.9615 65.6175 27.8991 65.6175 27.7742V20.7097C65.6175 20.5849 65.6797 20.5225 65.8042 20.5225H71.1167C71.2412 20.5225 71.3035 20.5849 71.3035 20.7097V27.7742C71.3035 27.8991 71.2412 27.9615 71.1167 27.9615H69.8197C69.6952 27.9615 69.6329 27.8991 69.6329 27.7742V22.0727H67.288V27.7742C67.288 27.8991 67.229 27.9615 67.1116 27.9615ZM73.0187 20.5225H75.7683C76.5842 20.5225 77.2314 20.7617 77.7086 21.2403C78.1859 21.712 78.4246 22.3502 78.4246 23.1547C78.4246 23.9663 78.1859 24.6113 77.7086 25.0899C77.2314 25.5616 76.5842 25.7974 75.7683 25.7974H74.5025V27.7742C74.5025 27.8991 74.4435 27.9615 74.3261 27.9615H73.0187C72.9007 27.9615 72.8423 27.8991 72.8423 27.7742V20.7097C72.8423 20.5849 72.9007 20.5225 73.0187 20.5225ZM74.5025 24.2472H75.5401C76.3215 24.2472 76.7126 23.883 76.7126 23.1547C76.7126 22.4264 76.3215 22.0623 75.5401 22.0623H74.5025V24.2472ZM85.2591 25.1315C85.2591 26.061 84.9925 26.7858 84.4601 27.306C83.9277 27.8262 83.1839 28.0863 82.2293 28.0863C81.2819 28.0863 80.5413 27.8262 80.0089 27.306C79.4764 26.7858 79.2099 26.061 79.2099 25.1315V23.3316C79.2099 22.4091 79.4764 21.6877 80.0089 21.1675C80.5413 20.6473 81.2819 20.3872 82.2293 20.3872C83.1839 20.3872 83.9277 20.6473 84.4601 21.1675C84.9925 21.6808 85.2591 22.4022 85.2591 23.3316V25.1315ZM80.9116 25.1003C80.9116 26.0367 81.3506 26.5049 82.2293 26.5049C83.108 26.5049 83.547 26.0367 83.547 25.1003V23.3628C83.547 22.4334 83.108 21.9686 82.2293 21.9686C81.3506 21.9686 80.9116 22.4334 80.9116 23.3628V25.1003ZM87.2603 29.3453H85.9737C85.8563 29.3453 85.7973 29.2863 85.7973 29.1684V26.5985C85.7973 26.4806 85.8563 26.4217 85.9737 26.4217H86.2435C86.4718 26.3107 86.6585 26.0783 86.8038 25.7246C86.949 25.3639 87.0768 24.7882 87.1877 23.9975C87.2986 23.2067 87.3952 22.1143 87.4782 20.7201C87.4853 20.5883 87.5476 20.5225 87.665 20.5225H92.0644C92.1889 20.5225 92.2511 20.5849 92.2511 20.7097V26.4113H92.7596C92.8769 26.4113 92.9359 26.4737 92.9359 26.5985V29.1684C92.9359 29.2863 92.8769 29.3453 92.7596 29.3453H91.4833C91.3588 29.3453 91.2966 29.2863 91.2966 29.1684V27.9615H87.4367V29.1684C87.4367 29.2863 87.3777 29.3453 87.2603 29.3453ZM89.0657 22.0727C88.9412 24.4032 88.6682 25.8529 88.246 26.4217H90.5806V22.0727H89.0657ZM99.3917 22.6241C99.3917 23.2553 99.1531 23.7131 98.6758 23.9975C99.3606 24.2818 99.703 24.8368 99.703 25.6622C99.703 26.3835 99.478 26.9488 99.0286 27.358C98.5856 27.7604 97.9631 27.9615 97.1609 27.9615H94.3075C94.183 27.9615 94.1207 27.8991 94.1207 27.7742V20.7097C94.1207 20.5849 94.183 20.5225 94.3075 20.5225H97.1401C97.8528 20.5225 98.406 20.7063 98.8003 21.0739C99.1946 21.4415 99.3917 21.9582 99.3917 22.6241ZM95.7913 26.4841H97.0571C97.3477 26.4841 97.5759 26.4113 97.7419 26.2656C97.9151 26.1199 98.0013 25.9015 98.0013 25.6101C98.0013 25.0483 97.6726 24.7674 97.0156 24.7674H95.7913V26.4841ZM97.6901 22.6969C97.6901 22.4611 97.6207 22.2808 97.4825 22.1559C97.3509 22.0311 97.1609 21.9686 96.9119 21.9686H95.7913V23.4252H96.9119C97.4307 23.4252 97.6901 23.1825 97.6901 22.6969ZM106.524 27.9615H105.237C105.12 27.9615 105.061 27.8991 105.061 27.7742V26.1408C105.061 25.2876 105.117 24.2992 105.227 23.1755L105.196 23.1651C104.816 24.0669 104.414 24.8749 103.992 25.5893L102.643 27.8366C102.595 27.9199 102.523 27.9615 102.425 27.9615H101.045C100.928 27.9615 100.869 27.8991 100.869 27.7742V20.7097C100.869 20.5849 100.928 20.5225 101.045 20.5225H102.332C102.456 20.5225 102.519 20.5849 102.519 20.7097V22.5721C102.519 23.446 102.481 24.372 102.405 25.35L102.436 25.3604C102.63 24.9235 103 24.1813 103.546 23.1339L104.936 20.6473C104.978 20.5641 105.047 20.5225 105.144 20.5225H106.524C106.648 20.5225 106.711 20.5849 106.711 20.7097V27.7742C106.711 27.8991 106.648 27.9615 106.524 27.9615ZM117.117 27.9615H115.54C115.45 27.9615 115.378 27.9199 115.322 27.8366L113.6 25.0483L113.195 25.5685V27.7742C113.195 27.8991 113.133 27.9615 113.008 27.9615H111.742C111.625 27.9615 111.566 27.8991 111.566 27.7742V25.5685L111.151 25.0483L109.428 27.8366C109.387 27.9199 109.314 27.9615 109.211 27.9615H107.633C107.558 27.9615 107.509 27.9407 107.488 27.8991C107.467 27.8575 107.478 27.8054 107.519 27.743L110.124 23.7998L107.799 20.7409C107.751 20.6785 107.737 20.6265 107.758 20.5849C107.786 20.5433 107.838 20.5225 107.914 20.5225H109.48C109.578 20.5225 109.65 20.5641 109.698 20.6473L110.757 22.1767C110.798 22.2392 111.068 22.6657 111.566 23.4565V20.7097C111.566 20.5849 111.625 20.5225 111.742 20.5225H113.008C113.133 20.5225 113.195 20.5849 113.195 20.7097V23.4565C113.465 23.0056 113.734 22.579 114.004 22.1767L115.052 20.6473C115.101 20.5641 115.177 20.5225 115.28 20.5225H116.837C116.913 20.5225 116.961 20.5433 116.982 20.5849C117.01 20.6265 117 20.6785 116.951 20.7409L114.627 23.7998L117.231 27.743C117.273 27.8054 117.283 27.8575 117.262 27.8991C117.242 27.9407 117.194 27.9615 117.117 27.9615ZM119.715 24.9339V26.4529H122.797C122.921 26.4529 122.983 26.5119 122.983 26.6297V27.7742C122.983 27.8991 122.921 27.9615 122.797 27.9615H118.231C118.107 27.9615 118.044 27.8991 118.044 27.7742V20.7097C118.044 20.5849 118.107 20.5225 118.231 20.5225H122.631C122.755 20.5225 122.817 20.5849 122.817 20.7097V21.8542C122.817 21.9721 122.755 22.0311 122.631 22.0311H119.715V23.4565H122.288C122.413 23.4565 122.475 23.5154 122.475 23.6333V24.757C122.475 24.8749 122.413 24.9339 122.288 24.9339H119.715ZM128.19 23.4356V20.7097C128.19 20.5849 128.252 20.5225 128.377 20.5225H129.674C129.798 20.5225 129.861 20.5849 129.861 20.7097V27.7742C129.861 27.8991 129.798 27.9615 129.674 27.9615H128.377C128.252 27.9615 128.19 27.8991 128.19 27.7742V24.9859H125.855V27.7742C125.855 27.8991 125.793 27.9615 125.669 27.9615H124.372C124.247 27.9615 124.185 27.8991 124.185 27.7742V20.7097C124.185 20.5849 124.247 20.5225 124.372 20.5225H125.669C125.793 20.5225 125.855 20.5849 125.855 20.7097V23.4356H128.19ZM137.054 27.9615H135.768C135.65 27.9615 135.591 27.8991 135.591 27.7742V26.1408C135.591 25.2876 135.646 24.2992 135.757 23.1755L135.726 23.1651C135.346 24.0669 134.944 24.8749 134.523 25.5893L133.174 27.8366C133.125 27.9199 133.052 27.9615 132.956 27.9615H131.576C131.458 27.9615 131.399 27.8991 131.399 27.7742V20.7097C131.399 20.5849 131.458 20.5225 131.576 20.5225H132.862C132.987 20.5225 133.049 20.5849 133.049 20.7097V22.5721C133.049 23.446 133.011 24.372 132.935 25.35L132.966 25.3604C133.159 24.9235 133.53 24.1813 134.076 23.1339L135.467 20.6473C135.508 20.5641 135.577 20.5225 135.674 20.5225H137.054C137.179 20.5225 137.241 20.5849 137.241 20.7097V27.7742C137.241 27.8991 137.179 27.9615 137.054 27.9615ZM138.527 23.0299C138.527 22.2461 138.766 21.6323 139.243 21.1883C139.727 20.7444 140.398 20.5225 141.256 20.5225H143.881C143.998 20.5225 144.057 20.5849 144.057 20.7097V27.7742C144.057 27.8991 143.998 27.9615 143.881 27.9615H142.574C142.456 27.9615 142.397 27.8991 142.397 27.7742V25.4853H141.64L140.208 27.8366C140.159 27.9199 140.083 27.9615 139.98 27.9615H138.371C138.295 27.9615 138.243 27.9407 138.216 27.8991C138.195 27.8575 138.209 27.8054 138.257 27.743L139.969 25.2668C139.513 25.0865 139.156 24.8056 138.901 24.424C138.652 24.0425 138.527 23.5779 138.527 23.0299ZM141.329 24.0391H142.397V22.0831H141.329C140.976 22.0831 140.706 22.1698 140.519 22.3432C140.332 22.5097 140.239 22.749 140.239 23.0611C140.239 23.3732 140.332 23.616 140.519 23.7894C140.706 23.9559 140.976 24.0391 141.329 24.0391ZM147.225 27.3476C147.149 27.2922 147.145 27.2158 147.214 27.1187L147.878 26.1199C147.941 26.0159 148.024 26.002 148.127 26.0783C148.556 26.3696 149.048 26.5153 149.601 26.5153C150.029 26.5153 150.361 26.4078 150.597 26.1928C150.832 25.9708 150.95 25.6587 150.95 25.2564V24.9443H148.957C148.833 24.9443 148.771 24.8818 148.771 24.757V23.727C148.771 23.6021 148.833 23.5397 148.957 23.5397H150.95V23.2172C150.95 22.8356 150.832 22.5339 150.597 22.312C150.369 22.0831 150.04 21.9686 149.611 21.9686C149.12 21.9686 148.684 22.0935 148.304 22.3432C148.2 22.4056 148.114 22.3883 148.044 22.2912L147.391 21.2924C147.321 21.1953 147.339 21.1155 147.443 21.0531C148.072 20.6091 148.805 20.3872 149.642 20.3872C150.555 20.3872 151.282 20.6265 151.821 21.1051C152.368 21.5837 152.641 22.2669 152.641 23.1547V25.3292C152.641 26.217 152.368 26.9037 151.821 27.3893C151.282 27.8679 150.545 28.1072 149.611 28.1072C148.698 28.1072 147.902 27.854 147.225 27.3476ZM155.428 27.9615H154.131C154.007 27.9615 153.944 27.8991 153.944 27.7742V20.7097C153.944 20.5849 154.007 20.5225 154.131 20.5225H155.428C155.553 20.5225 155.615 20.5849 155.615 20.7097V23.3316L157.607 20.6369C157.662 20.5606 157.739 20.5225 157.835 20.5225H159.475C159.551 20.5225 159.599 20.5433 159.62 20.5849C159.648 20.6265 159.638 20.6785 159.589 20.7409L157.119 23.779L159.879 27.743C159.928 27.7985 159.938 27.8505 159.911 27.8991C159.89 27.9407 159.841 27.9615 159.765 27.9615H158.167C158.077 27.9615 158.005 27.9199 157.95 27.8366L156.071 25.0587L155.615 25.5789V27.7742C155.615 27.8991 155.553 27.9615 155.428 27.9615ZM165.444 27.3476C164.766 27.854 163.981 28.1072 163.089 28.1072C162.155 28.1072 161.415 27.8679 160.868 27.3893C160.329 26.9037 160.059 26.217 160.059 25.3292V23.1547C160.059 22.2669 160.329 21.5837 160.868 21.1051C161.415 20.6265 162.145 20.3872 163.058 20.3872C163.909 20.3872 164.649 20.6091 165.278 21.0531C165.382 21.1155 165.399 21.1953 165.33 21.2924L164.676 22.2912C164.608 22.3883 164.521 22.4056 164.417 22.3432C164.03 22.0935 163.587 21.9686 163.089 21.9686C162.66 21.9686 162.328 22.0831 162.093 22.312C161.864 22.5339 161.75 22.8356 161.75 23.2172V25.2564C161.75 25.6587 161.868 25.9708 162.103 26.1928C162.339 26.4078 162.671 26.5153 163.099 26.5153C163.632 26.5153 164.113 26.3696 164.541 26.0783C164.645 26.002 164.728 26.0159 164.79 26.1199L165.455 27.1187C165.524 27.2158 165.521 27.2922 165.444 27.3476ZM167.942 27.9615H166.635C166.51 27.9615 166.448 27.8991 166.448 27.7742V20.7097C166.448 20.5849 166.51 20.5225 166.635 20.5225H171.947C172.072 20.5225 172.134 20.5849 172.134 20.7097V27.7742C172.134 27.8991 172.072 27.9615 171.947 27.9615H170.65C170.526 27.9615 170.463 27.8991 170.463 27.7742V22.0727H168.119V27.7742C168.119 27.8991 168.06 27.9615 167.942 27.9615ZM179.483 25.1315C179.483 26.061 179.217 26.7858 178.684 27.306C178.152 27.8262 177.408 28.0863 176.454 28.0863C175.506 28.0863 174.766 27.8262 174.233 27.306C173.701 26.7858 173.434 26.061 173.434 25.1315V23.3316C173.434 22.4091 173.701 21.6877 174.233 21.1675C174.766 20.6473 175.506 20.3872 176.454 20.3872C177.408 20.3872 178.152 20.6473 178.684 21.1675C179.217 21.6808 179.483 22.4022 179.483 23.3316V25.1315ZM175.136 25.1003C175.136 26.0367 175.575 26.5049 176.454 26.5049C177.332 26.5049 177.771 26.0367 177.771 25.1003V23.3628C177.771 22.4334 177.332 21.9686 176.454 21.9686C175.575 21.9686 175.136 22.4334 175.136 23.3628V25.1003ZM180.952 20.5225H183.702C184.518 20.5225 185.165 20.7617 185.642 21.2403C186.119 21.712 186.358 22.3502 186.358 23.1547C186.358 23.9663 186.119 24.6113 185.642 25.0899C185.165 25.5616 184.518 25.7974 183.702 25.7974H182.436V27.7742C182.436 27.8991 182.377 27.9615 182.26 27.9615H180.952C180.835 27.9615 180.776 27.8991 180.776 27.7742V20.7097C180.776 20.5849 180.835 20.5225 180.952 20.5225ZM182.436 24.2472H183.474C184.255 24.2472 184.646 23.883 184.646 23.1547C184.646 22.4264 184.255 22.0623 183.474 22.0623H182.436V24.2472ZM186.926 20.5225H192.384C192.501 20.5225 192.56 20.5849 192.56 20.7097V21.8958C192.56 22.0137 192.501 22.0727 192.384 22.0727H190.485V27.7742C190.485 27.8991 190.426 27.9615 190.309 27.9615H189.001C188.883 27.9615 188.825 27.8991 188.825 27.7742V22.0727H186.926C186.802 22.0727 186.739 22.0137 186.739 21.8958V20.7097C186.739 20.5849 186.802 20.5225 186.926 20.5225ZM193.684 27.9615H192.294C192.149 27.9615 192.1 27.8921 192.149 27.7534L194.556 20.6681C194.597 20.571 194.663 20.5225 194.753 20.5225H196.33C196.427 20.5225 196.492 20.571 196.527 20.6681L198.934 27.7534C198.989 27.8921 198.941 27.9615 198.789 27.9615H197.409C197.298 27.9615 197.226 27.9095 197.191 27.8054L196.807 26.5361H194.286L193.892 27.8054C193.864 27.9095 193.794 27.9615 193.684 27.9615ZM195.521 22.3432C195.486 22.4542 195.368 22.853 195.168 23.5397C194.974 24.2194 194.822 24.7362 194.711 25.0899H196.382C196.361 25.0205 196.087 24.105 195.562 22.3432H195.521Z" fill="#253858"/>
</svg>
