<svg width="458" height="35" viewBox="0 0 458 35" fill="none" xmlns="http://www.w3.org/2000/svg">
<g clip-path="url(#clip0_101_149)">
<path d="M35.2068 11.6117L23.4143 -0.181396L23.4203 11.6107L35.2068 11.6117Z" fill="#1A80C0"/>
<path d="M35.2051 35.1998L23.4096 23.4092L23.4144 35.2037L35.2051 35.1998Z" fill="#26C9F4"/>
<path d="M-0.178375 23.4105L11.6141 35.2036L11.6252 23.4061L-0.178375 23.4105Z" fill="#1A80C0"/>
<path d="M23.4081 23.4083L35.2047 35.2016L35.2063 23.4083L23.4081 23.4083Z" fill="#26C9F4"/>
<path d="M35.2048 11.6149L23.4124 23.408L35.2062 23.4081L35.2048 11.6149Z" fill="#00C0F2"/>
<path d="M23.4087 23.4093L11.6141 35.2046L23.4144 35.1981L23.4087 23.4093Z" fill="#00C0F2"/>
<path d="M23.4108 23.41L35.2067 11.6135L23.4125 11.6138L23.4108 23.41Z" fill="#00ADE5"/>
<path d="M11.6143 35.2066L23.4124 23.408L11.6162 23.4102L11.6143 35.2066Z" fill="#00ADE5"/>
<path d="M-0.196811 23.3881L11.5956 35.1812L11.5953 23.3863L-0.196811 23.3881Z" fill="#F22A2E"/>
<path d="M35.1895 11.5902L23.397 -0.202881L23.3859 11.5946L35.1895 11.5902Z" fill="#F22A2E"/>
<path d="M-0.197541 -0.199343L11.5949 11.5938L11.5884 -0.207262L-0.197541 -0.199343Z" fill="#FF494B"/>
<path d="M-0.206449 23.3958L11.5949 11.5938L-0.196836 11.5932L-0.206449 23.3958Z" fill="#FF241E"/>
<path d="M11.6007 11.5997L23.3931 -0.193359L11.5928 -0.186881L11.6007 11.5997Z" fill="#FF3030"/>
<path d="M11.5888 11.5862L-0.197449 -0.200684L-0.197209 11.5941L11.5888 11.5862Z" fill="#FF494B"/>
<path d="M11.5999 11.5923L-0.201416 23.3943L11.599 23.3878L11.5999 11.5923Z" fill="#F92A2D"/>
<path d="M23.3874 -0.195195L11.5949 11.5979L23.3953 11.5914L23.3874 -0.195195Z" fill="#F92A2D"/>
</g>
<path d="M62.95 11.0592V7.82753H49.6816V28.4189H62.95V25.1872H53.1205V19.7248H61.2306V16.4931H53.1205V11.0592H62.95ZM79.3539 12.9754H75.3992L71.9603 17.78L68.4928 12.9754H64.538L69.9542 20.6113L64.4233 28.4189H68.3781L71.9603 23.414L75.5425 28.4189H79.4972L73.9376 20.6113L79.3539 12.9754ZM94.0795 15.0059C92.7613 13.3758 90.7266 12.5464 88.6059 12.5464C86.8865 12.5464 85.2816 13.147 84.0494 14.1479V12.9754H80.983V35H84.4506V27.5609C85.6255 28.4189 87.1158 28.8478 88.7205 28.8478C90.7839 28.8478 92.7899 27.9613 94.0795 26.3884C95.3691 24.7582 95.8563 22.7849 95.8563 20.6971C95.8563 18.5808 95.2831 16.5503 94.0795 15.0059ZM91.3284 24.272C90.6119 25.3302 89.4083 25.7591 88.2047 25.7591C86.9725 25.7591 85.9122 25.3588 85.167 24.5008C84.3933 23.6142 84.0494 22.1556 84.0494 20.6971C84.0494 19.2385 84.3933 17.8086 85.167 16.8648C85.8548 16.0355 86.9152 15.6351 88.0901 15.6351C89.437 15.6351 90.5547 16.0641 91.2711 17.1222C91.9016 18.0088 92.1881 19.2958 92.1881 20.6971C92.1881 22.0699 91.9589 23.3854 91.3284 24.272ZM104.759 28.8478C107.052 28.8478 109.172 27.99 110.605 26.2739C111.923 24.6438 112.468 22.842 112.468 20.6971C112.468 18.638 111.952 16.7219 110.605 15.0917C109.201 13.4044 107.023 12.5464 104.759 12.5464C102.495 12.5464 100.289 13.433 98.913 15.0917C97.652 16.6075 97.0503 18.5521 97.0503 20.6971C97.0503 22.7849 97.5947 24.6724 98.913 26.2739C100.317 27.9613 102.466 28.8478 104.759 28.8478ZM107.854 24.1863C107.166 25.13 105.991 25.6161 104.759 25.6161C103.498 25.6161 102.352 25.13 101.664 24.1863C100.919 23.2424 100.718 21.9555 100.718 20.6971C100.718 19.4101 100.919 18.1232 101.664 17.1794C102.352 16.2357 103.498 15.7781 104.759 15.7781C105.991 15.7781 107.166 16.2357 107.854 17.1794C108.571 18.1232 108.828 19.4101 108.828 20.6971C108.828 21.9555 108.571 23.2424 107.854 24.1863ZM122.08 12.575C121.048 12.6036 120.017 12.8896 119.128 13.4902C118.469 13.9191 117.953 14.4911 117.581 15.1203V12.9754H114.514V28.4189H117.982V20.4112C117.982 18.9812 118.24 17.78 119.128 16.8648C119.701 16.2643 120.59 15.8639 121.736 15.7781C122.768 15.7209 122.692 15.7781 122.692 15.7781V12.5989C122.692 12.5989 122.638 12.575 122.08 12.575ZM135.233 15.6637V12.9754H130.676V8.6855H127.238V12.9754H124.429V15.6637H127.238V22.0985C127.238 23.7286 127.295 25.13 127.925 26.3311C128.527 27.4751 129.587 28.1614 130.992 28.5047C132.109 28.7907 134.029 28.7335 135.233 28.4189V25.4445C134.402 25.559 133.456 25.5875 132.682 25.5304C132.052 25.4732 131.393 25.1014 131.049 24.5294C130.705 23.9574 130.676 23.0995 130.676 21.8697V15.6637H135.233ZM138.034 24.9011V28.4189H141.558V24.9011H138.034ZM148.763 7.82753V25.1872H157.877V28.4189H145.324V7.82753H148.763ZM159.51 7.51294V10.6874H162.949V7.51294H159.51ZM159.51 12.9754V28.4189H162.949V12.9754H159.51ZM178.508 14.1193C177.075 12.7466 175.27 12.4606 173.522 12.575C172.118 12.6322 170.57 13.147 169.567 14.3195C169.453 14.4625 169.338 14.6055 169.223 14.7199V12.9754H166.185V28.4189H169.653V21.6981V21.6695C169.653 20.5542 169.653 19.3816 169.825 18.638C169.996 17.7228 170.427 16.9792 171.028 16.4931C171.602 16.0355 172.289 15.8067 173.063 15.7781C174.153 15.7495 175.04 16.0641 175.643 16.6647C176.646 17.5798 176.875 19.2958 176.875 21.0976V28.4189H180.371V20.9545C180.371 18.4664 180.314 15.7495 178.508 14.1193ZM186.528 21.8983H188.161L192.804 28.4189H196.758L191.142 20.5255L196.272 12.9754H192.403L188.133 19.21H186.528V7.82753H183.031L183.003 28.4189H186.528V21.8983Z" fill="#253858"/>
<rect x="212.215" y="9.56982" width="1.02851" height="19.5417" fill="#BDBFC7"/>
<path d="M235.759 10.1406V16.8906H234.841V12.1188L232.6 16.8906H232.159L229.919 12.1281V16.8906H229V10.1406H229.909L232.384 15.3719L234.841 10.1406H235.759ZM241.509 11.05H238.171V13.0656H240.946V13.9656H238.171V15.9813H241.509V16.8906H237.262V10.1406H241.509V11.05ZM242.122 16.8906L244.41 13.375L242.31 10.1406H243.397L245.206 13.0094H246.172V10.1406H247.091V13.0094H248.047L249.856 10.1406H250.944L248.844 13.375L251.131 16.8906H250.035L248.047 13.75H247.091V16.8906H246.172V13.75H245.206L243.219 16.8906H242.122ZM257.396 16.0281H257.903V17.6969H257.04V16.8906H252.324V17.6969H251.471V16.0281C252.09 16.0281 252.474 15.3969 252.624 14.1344L253.084 10.1406H257.396V16.0281ZM256.534 16.0281V11.0031H253.862L253.478 14.2375C253.378 15.1 253.171 15.6969 252.859 16.0281H256.534ZM263.292 10.1406H264.23L261.614 15.7469C261.333 16.3094 261.03 16.6813 260.705 16.8625C260.48 16.975 260.223 17.0313 259.936 17.0313C259.705 17.0313 259.458 16.9844 259.195 16.8906L259.495 16.0938C259.651 16.1563 259.798 16.1875 259.936 16.1875C260.111 16.1875 260.245 16.1594 260.339 16.1031C260.539 15.9906 260.742 15.7125 260.948 15.2688L258.558 10.1406H259.486L261.389 14.3125L263.292 10.1406ZM269.439 10.1406H270.348V16.8906H269.439V14.4531H265.98V16.8906H265.07V10.1406H265.98V13.5531H269.439V10.1406ZM275.944 16.8906L275.531 15.6625H272.484L272.081 16.8906H271.144L273.365 10.1406H274.659L276.881 16.8906H275.944ZM272.765 14.8094H275.25L274.003 11.0781L272.765 14.8094ZM282.746 12.2875C282.758 12.775 282.599 13.2188 282.268 13.6188C282.074 13.8688 281.827 14.0656 281.527 14.2094C281.227 14.3531 280.914 14.425 280.589 14.425H278.583V16.8906H277.674V10.1406H280.589C280.833 10.1406 281.064 10.1813 281.283 10.2625C281.671 10.3938 281.983 10.6094 282.221 10.9094C282.571 11.3094 282.746 11.7688 282.746 12.2875ZM281.536 13.0844C281.73 12.8344 281.824 12.5688 281.818 12.2875C281.805 11.9375 281.689 11.6438 281.471 11.4063C281.214 11.1375 280.918 11.0031 280.58 11.0031H278.583V13.5625H280.58C280.968 13.5625 281.286 13.4031 281.536 13.0844ZM286.558 17.0313C286.065 17.0313 285.605 16.9406 285.18 16.7594C284.762 16.5719 284.418 16.3 284.149 15.9438C283.643 15.3063 283.39 14.4969 283.39 13.5156C283.39 12.5281 283.643 11.7188 284.149 11.0875C284.424 10.7313 284.771 10.4625 285.19 10.2812C285.615 10.0938 286.071 10 286.558 10C287.602 10.0125 288.408 10.375 288.977 11.0875C289.465 11.7 289.715 12.5094 289.727 13.5156C289.727 14.5094 289.477 15.3188 288.977 15.9438C288.402 16.6688 287.596 17.0313 286.558 17.0313ZM286.558 16.1688C286.902 16.1688 287.224 16.1031 287.524 15.9719C287.824 15.8344 288.065 15.6406 288.246 15.3906C288.583 14.9469 288.758 14.3219 288.771 13.5156C288.771 12.7156 288.596 12.0906 288.246 11.6406C288.065 11.3906 287.824 11.2 287.524 11.0688C287.224 10.9313 286.902 10.8656 286.558 10.8719C286.221 10.8656 285.899 10.9313 285.593 11.0688C285.293 11.2 285.052 11.3906 284.871 11.6406C284.533 12.0656 284.358 12.6906 284.346 13.5156C284.346 14.3156 284.521 14.9406 284.871 15.3906C285.052 15.6406 285.293 15.8344 285.593 15.9719C285.899 16.1094 286.221 16.175 286.558 16.1688ZM296.13 16.0281H296.636V17.6969H295.773V16.8906H291.058V17.6969H290.205V16.0281C290.823 16.0281 291.208 15.3969 291.358 14.1344L291.817 10.1406H296.13V16.0281ZM295.267 16.0281V11.0031H292.595L292.211 14.2375C292.111 15.1 291.905 15.6969 291.592 16.0281H295.267ZM302.222 10.1406H303.132V16.8906H302.222V14.4531H298.763V16.8906H297.854V10.1406H298.763V13.5531H302.222V10.1406ZM308.727 16.8906L308.314 15.6625H305.267L304.864 16.8906H303.927L306.149 10.1406H307.442L309.664 16.8906H308.727ZM305.549 14.8094H308.033L306.786 11.0781L305.549 14.8094ZM314.882 10.1406V16.8906H313.982V14.425H312.041L310.851 16.8906H309.81L311.104 14.2375C310.766 14.0875 310.498 13.8813 310.298 13.6188C309.973 13.225 309.81 12.7813 309.81 12.2875C309.823 11.7563 310.001 11.2969 310.345 10.9094C310.582 10.6031 310.891 10.3875 311.273 10.2625C311.491 10.1813 311.726 10.1406 311.976 10.1406H314.882ZM313.982 13.5625V11.0031H311.976C311.638 11.0031 311.345 11.1375 311.095 11.4063C310.87 11.6438 310.751 11.9375 310.738 12.2875C310.732 12.5688 310.826 12.8344 311.02 13.0844C311.276 13.4031 311.595 13.5625 311.976 13.5625H313.982ZM323.22 10.1406V11.05H320.942V16.8906H320.032V11.05H317.764V10.1406H323.22ZM326.856 17.0313C326.363 17.0313 325.903 16.9406 325.478 16.7594C325.059 16.5719 324.716 16.3 324.447 15.9438C323.941 15.3063 323.688 14.4969 323.688 13.5156C323.688 12.5281 323.941 11.7188 324.447 11.0875C324.722 10.7313 325.069 10.4625 325.488 10.2812C325.913 10.0938 326.369 10 326.856 10C327.9 10.0125 328.706 10.375 329.275 11.0875C329.762 11.7 330.012 12.5094 330.025 13.5156C330.025 14.5094 329.775 15.3188 329.275 15.9438C328.7 16.6688 327.894 17.0313 326.856 17.0313ZM326.856 16.1688C327.2 16.1688 327.522 16.1031 327.822 15.9719C328.122 15.8344 328.363 15.6406 328.544 15.3906C328.881 14.9469 329.056 14.3219 329.069 13.5156C329.069 12.7156 328.894 12.0906 328.544 11.6406C328.363 11.3906 328.122 11.2 327.822 11.0688C327.522 10.9313 327.2 10.8656 326.856 10.8719C326.519 10.8656 326.197 10.9313 325.891 11.0688C325.591 11.2 325.35 11.3906 325.169 11.6406C324.831 12.0656 324.656 12.6906 324.644 13.5156C324.644 14.3156 324.819 14.9406 325.169 15.3906C325.35 15.6406 325.591 15.8344 325.891 15.9719C326.197 16.1094 326.519 16.175 326.856 16.1688ZM336.218 12.2875C336.231 12.775 336.071 13.2188 335.74 13.6188C335.546 13.8688 335.299 14.0656 334.999 14.2094C334.699 14.3531 334.387 14.425 334.062 14.425H332.056V16.8906H331.146V10.1406H334.062C334.306 10.1406 334.537 10.1813 334.756 10.2625C335.143 10.3938 335.456 10.6094 335.693 10.9094C336.043 11.3094 336.218 11.7688 336.218 12.2875ZM335.009 13.0844C335.203 12.8344 335.296 12.5688 335.29 12.2875C335.278 11.9375 335.162 11.6438 334.943 11.4063C334.687 11.1375 334.39 11.0031 334.053 11.0031H332.056V13.5625H334.053C334.44 13.5625 334.759 13.4031 335.009 13.0844ZM341.531 10.1406V11.05H338.147V16.8906H337.237V10.1406H341.531ZM345.173 17.0313C344.679 17.0313 344.219 16.9406 343.794 16.7594C343.376 16.5719 343.032 16.3 342.763 15.9438C342.257 15.3063 342.004 14.4969 342.004 13.5156C342.004 12.5281 342.257 11.7188 342.763 11.0875C343.038 10.7313 343.385 10.4625 343.804 10.2812C344.229 10.0938 344.685 10 345.173 10C346.216 10.0125 347.023 10.375 347.591 11.0875C348.079 11.7 348.329 12.5094 348.341 13.5156C348.341 14.5094 348.091 15.3188 347.591 15.9438C347.016 16.6688 346.21 17.0313 345.173 17.0313ZM345.173 16.1688C345.516 16.1688 345.838 16.1031 346.138 15.9719C346.438 15.8344 346.679 15.6406 346.86 15.3906C347.198 14.9469 347.373 14.3219 347.385 13.5156C347.385 12.7156 347.21 12.0906 346.86 11.6406C346.679 11.3906 346.438 11.2 346.138 11.0688C345.838 10.9313 345.516 10.8656 345.173 10.8719C344.835 10.8656 344.513 10.9313 344.207 11.0688C343.907 11.2 343.666 11.3906 343.485 11.6406C343.148 12.0656 342.973 12.6906 342.96 13.5156C342.96 14.3156 343.135 14.9406 343.485 15.3906C343.666 15.6406 343.907 15.8344 344.207 15.9719C344.513 16.1094 344.835 16.175 345.173 16.1688ZM353.916 13.7406C354.185 14.0906 354.313 14.4906 354.3 14.9406C354.288 15.3844 354.15 15.7781 353.888 16.1219C353.625 16.4406 353.285 16.6656 352.866 16.7969C352.641 16.8594 352.363 16.8906 352.032 16.8906H349.463V10.1406H351.9C352.25 10.1406 352.5 10.1656 352.65 10.2156C353.038 10.3281 353.347 10.5375 353.578 10.8438C353.828 11.1313 353.963 11.4906 353.982 11.9219C354.007 12.3156 353.882 12.6813 353.607 13.0188C353.544 13.1125 353.478 13.1938 353.41 13.2625C353.591 13.375 353.76 13.5344 353.916 13.7406ZM352.097 10.9938H350.382V12.925H352.097C352.222 12.925 352.357 12.8906 352.5 12.8219C352.65 12.7469 352.769 12.65 352.857 12.5313C352.994 12.3375 353.06 12.1344 353.053 11.9219C353.053 11.6969 352.969 11.4906 352.8 11.3031C352.613 11.0969 352.378 10.9938 352.097 10.9938ZM353.063 15.6906C353.263 15.4906 353.369 15.2406 353.382 14.9406C353.382 14.6594 353.294 14.4125 353.119 14.2C352.907 13.9188 352.619 13.7781 352.257 13.7781H350.382V16.0281H352.022C352.278 16.0281 352.482 16.0094 352.632 15.9719C352.788 15.9281 352.932 15.8344 353.063 15.6906ZM360.702 10.1406V16.8906H359.793V11.0031H357.187L356.737 14.8C356.655 15.5125 356.471 16.0531 356.183 16.4219C355.896 16.7844 355.443 16.9406 354.824 16.8906V16.075C355.18 16.0688 355.433 15.9469 355.583 15.7094C355.74 15.4719 355.846 15.1094 355.902 14.6219L356.437 10.1406H360.702ZM366.623 10.1406V16.8906H365.723V14.425H363.782L362.592 16.8906H361.551L362.845 14.2375C362.507 14.0875 362.239 13.8813 362.039 13.6188C361.714 13.225 361.551 12.7813 361.551 12.2875C361.564 11.7563 361.742 11.2969 362.086 10.9094C362.323 10.6031 362.632 10.3875 363.014 10.2625C363.232 10.1813 363.467 10.1406 363.717 10.1406H366.623ZM365.723 13.5625V11.0031H363.717C363.379 11.0031 363.086 11.1375 362.836 11.4063C362.611 11.6438 362.492 11.9375 362.479 12.2875C362.473 12.5688 362.567 12.8344 362.761 13.0844C363.017 13.4031 363.336 13.5625 363.717 13.5625H365.723ZM374.502 10.1406H375.308V16.8906H374.38V11.8094L370.977 16.8906H370.161V10.1406H371.08V15.2219L374.502 10.1406ZM383.176 10.1406H383.983V16.8906H383.055V11.8094L379.651 16.8906H378.836V10.1406H379.755V15.2219L383.176 10.1406ZM389.849 10.1406H390.758V16.8906H389.849V14.4531H386.39V16.8906H385.48V10.1406H386.39V13.5531H389.849V10.1406ZM396.71 13.7406C396.979 14.0906 397.107 14.4906 397.094 14.9406C397.082 15.3844 396.944 15.7781 396.682 16.1219C396.419 16.4406 396.079 16.6656 395.66 16.7969C395.435 16.8594 395.157 16.8906 394.825 16.8906H392.257V10.1406H394.694C395.044 10.1406 395.294 10.1656 395.444 10.2156C395.832 10.3281 396.141 10.5375 396.372 10.8438C396.622 11.1313 396.757 11.4906 396.775 11.9219C396.8 12.3156 396.675 12.6813 396.4 13.0188C396.338 13.1125 396.272 13.1938 396.204 13.2625C396.385 13.375 396.554 13.5344 396.71 13.7406ZM394.891 10.9938H393.175V12.925H394.891C395.016 12.925 395.15 12.8906 395.294 12.8219C395.444 12.7469 395.563 12.65 395.65 12.5313C395.788 12.3375 395.854 12.1344 395.847 11.9219C395.847 11.6969 395.763 11.4906 395.594 11.3031C395.407 11.0969 395.172 10.9938 394.891 10.9938ZM395.857 15.6906C396.057 15.4906 396.163 15.2406 396.175 14.9406C396.175 14.6594 396.088 14.4125 395.913 14.2C395.7 13.9188 395.413 13.7781 395.05 13.7781H393.175V16.0281H394.816C395.072 16.0281 395.275 16.0094 395.425 15.9719C395.582 15.9281 395.725 15.8344 395.857 15.6906ZM402.427 11.05H399.09V13.0656H401.865V13.9656H399.09V15.9813H402.427V16.8906H398.181V10.1406H402.427V11.05ZM408.6 14.6406L409.5 14.8938C409.394 15.2813 409.216 15.6313 408.966 15.9438C408.385 16.6688 407.578 17.0313 406.547 17.0313C405.516 17.0313 404.71 16.6688 404.128 15.9438C403.61 15.2938 403.357 14.4844 403.369 13.5156C403.382 12.5219 403.635 11.7125 404.128 11.0875C404.697 10.3625 405.503 10 406.547 10C407.035 10 407.488 10.0938 407.907 10.2812C408.332 10.4625 408.685 10.7313 408.966 11.0875C409.228 11.425 409.428 11.8344 409.566 12.3156L408.628 12.475C408.541 12.15 408.413 11.8719 408.244 11.6406C408.05 11.3906 407.803 11.2 407.503 11.0688C407.203 10.9313 406.885 10.8625 406.547 10.8625C406.203 10.8625 405.882 10.9313 405.582 11.0688C405.282 11.2 405.041 11.3906 404.86 11.6406C404.522 12.0656 404.347 12.6906 404.335 13.5156C404.347 14.3344 404.522 14.9594 404.86 15.3906C405.041 15.6406 405.282 15.8344 405.582 15.9719C405.882 16.1031 406.203 16.1688 406.547 16.1688C406.885 16.175 407.203 16.1125 407.503 15.9813C407.803 15.8438 408.05 15.6469 408.244 15.3906C408.407 15.1594 408.525 14.9094 408.6 14.6406ZM415.487 10.1406V11.05H413.209V16.8906H412.3V11.05H410.031V10.1406H415.487ZM420.671 10.1406H421.477V16.8906H420.549V11.8094L417.146 16.8906H416.33V10.1406H417.249V15.2219L420.671 10.1406ZM428.515 15.9813H429.34V17.6969H428.431V16.8906H422.974V10.1406H423.884V15.9813H427.606V10.1406H428.515V15.9813ZM434.803 10.1406H435.61V16.8906H434.682V11.8094L431.278 16.8906H430.463V10.1406H431.382V15.2219L434.803 10.1406ZM441.448 10.1406H442.254V16.8906H441.326V11.8094L437.923 16.8906H437.107V10.1406H438.026V15.2219L441.448 10.1406ZM443.817 15.9156H444.792V16.8906H443.817V15.9156ZM234.541 27.9813H235.366V29.6969H234.456V28.8907H229V22.1407H229.909V27.9813H233.631V22.1407H234.541V27.9813ZM240.829 22.1407H241.635V28.8907H240.707V23.8094L237.304 28.8907H236.488V22.1407H237.407V27.2219L240.829 22.1407ZM248.186 23.1907C248.523 23.4344 248.78 23.7438 248.955 24.1188C249.136 24.4938 249.22 24.8938 249.208 25.3188C249.227 26.225 248.886 26.9282 248.186 27.4282C247.686 27.7657 247.102 27.9657 246.433 28.0282V28.8907H245.533V28.0282C244.839 27.9657 244.258 27.7657 243.789 27.4282C243.452 27.1844 243.192 26.8782 243.011 26.5094C242.836 26.1407 242.752 25.7438 242.758 25.3188C242.752 24.8938 242.836 24.4969 243.011 24.1282C243.186 23.7532 243.442 23.4407 243.78 23.1907C244.261 22.8532 244.845 22.6532 245.533 22.5907V22.1407H246.433V22.5813C247.114 22.6438 247.698 22.8469 248.186 23.1907ZM244.314 26.65C244.633 26.8875 245.039 27.0375 245.533 27.1V23.5375C245.033 23.6 244.63 23.75 244.323 23.9875C243.923 24.275 243.723 24.7188 243.723 25.3188C243.723 25.9063 243.92 26.35 244.314 26.65ZM247.652 26.65C248.052 26.3563 248.252 25.9125 248.252 25.3188C248.252 24.725 248.048 24.2813 247.642 23.9875C247.342 23.75 246.939 23.6 246.433 23.5375V27.1094C246.933 27.0469 247.339 26.8938 247.652 26.65ZM255.403 24.2875C255.415 24.775 255.256 25.2188 254.925 25.6188C254.731 25.8688 254.484 26.0657 254.184 26.2094C253.884 26.3532 253.572 26.425 253.247 26.425H251.24V28.8907H250.331V22.1407H253.247C253.49 22.1407 253.722 22.1813 253.94 22.2625C254.328 22.3938 254.64 22.6094 254.878 22.9094C255.228 23.3094 255.403 23.7688 255.403 24.2875ZM254.194 25.0844C254.387 24.8344 254.481 24.5688 254.475 24.2875C254.462 23.9375 254.347 23.6438 254.128 23.4063C253.872 23.1375 253.575 23.0032 253.237 23.0032H251.24V25.5625H253.237C253.625 25.5625 253.944 25.4032 254.194 25.0844ZM259.216 29.0313C258.722 29.0313 258.263 28.9407 257.838 28.7594C257.419 28.5719 257.075 28.3 256.806 27.9438C256.3 27.3063 256.047 26.4969 256.047 25.5157C256.047 24.5282 256.3 23.7188 256.806 23.0875C257.081 22.7313 257.428 22.4625 257.847 22.2813C258.272 22.0938 258.728 22 259.216 22C260.259 22.0125 261.066 22.375 261.634 23.0875C262.122 23.7 262.372 24.5094 262.384 25.5157C262.384 26.5093 262.134 27.3188 261.634 27.9438C261.059 28.6688 260.253 29.0313 259.216 29.0313ZM259.216 28.1688C259.559 28.1688 259.881 28.1032 260.181 27.9719C260.481 27.8344 260.722 27.6407 260.903 27.3907C261.241 26.9469 261.416 26.3218 261.428 25.5157C261.428 24.7157 261.253 24.0907 260.903 23.6407C260.722 23.3907 260.481 23.2 260.181 23.0688C259.881 22.9313 259.559 22.8657 259.216 22.8719C258.878 22.8657 258.556 22.9313 258.25 23.0688C257.95 23.2 257.709 23.3907 257.528 23.6407C257.191 24.0657 257.016 24.6907 257.003 25.5157C257.003 26.3157 257.178 26.9407 257.528 27.3907C257.709 27.6407 257.95 27.8344 258.25 27.9719C258.556 28.1094 258.878 28.175 259.216 28.1688ZM267.959 25.7407C268.228 26.0907 268.356 26.4907 268.343 26.9407C268.331 27.3844 268.193 27.7782 267.931 28.1219C267.668 28.4407 267.328 28.6657 266.909 28.7969C266.684 28.8594 266.406 28.8907 266.075 28.8907H263.506V22.1407H265.943C266.293 22.1407 266.543 22.1657 266.693 22.2157C267.081 22.3282 267.39 22.5375 267.622 22.8438C267.872 23.1313 268.006 23.4907 268.025 23.9219C268.05 24.3157 267.925 24.6813 267.65 25.0188C267.587 25.1125 267.522 25.1938 267.453 25.2625C267.634 25.375 267.803 25.5344 267.959 25.7407ZM266.14 22.9938H264.425V24.925H266.14C266.265 24.925 266.4 24.8907 266.543 24.8219C266.693 24.7469 266.812 24.65 266.9 24.5313C267.037 24.3375 267.103 24.1344 267.097 23.9219C267.097 23.6969 267.012 23.4907 266.843 23.3032C266.656 23.0969 266.422 22.9938 266.14 22.9938ZM267.106 27.6907C267.306 27.4907 267.412 27.2407 267.425 26.9407C267.425 26.6594 267.337 26.4125 267.162 26.2C266.95 25.9188 266.662 25.7782 266.3 25.7782H264.425V28.0282H266.065C266.322 28.0282 266.525 28.0094 266.675 27.9719C266.831 27.9282 266.975 27.8344 267.106 27.6907ZM273.527 28.8907L273.114 27.6625H270.067L269.664 28.8907H268.727L270.948 22.1407H272.242L274.464 28.8907H273.527ZM270.348 26.8094H272.833L271.586 23.0782L270.348 26.8094ZM279.682 22.1407V28.8907H278.782V26.425H276.841L275.651 28.8907H274.61L275.904 26.2375C275.566 26.0875 275.297 25.8813 275.097 25.6188C274.772 25.225 274.61 24.7813 274.61 24.2875C274.622 23.7563 274.801 23.2969 275.144 22.9094C275.382 22.6032 275.691 22.3875 276.072 22.2625C276.291 22.1813 276.526 22.1407 276.776 22.1407H279.682ZM278.782 25.5625V23.0032H276.776C276.438 23.0032 276.144 23.1375 275.894 23.4063C275.669 23.6438 275.551 23.9375 275.538 24.2875C275.532 24.5688 275.626 24.8344 275.819 25.0844C276.076 25.4032 276.394 25.5625 276.776 25.5625H278.782ZM288.76 22.1407V28.8907H287.851V23.05H284.129V28.8907H283.22V22.1407H288.76ZM293.054 29.0313C292.56 29.0313 292.1 28.9407 291.675 28.7594C291.257 28.5719 290.913 28.3 290.644 27.9438C290.138 27.3063 289.885 26.4969 289.885 25.5157C289.885 24.5282 290.138 23.7188 290.644 23.0875C290.919 22.7313 291.266 22.4625 291.685 22.2813C292.11 22.0938 292.566 22 293.054 22C294.097 22.0125 294.904 22.375 295.472 23.0875C295.96 23.7 296.21 24.5094 296.222 25.5157C296.222 26.5093 295.972 27.3188 295.472 27.9438C294.897 28.6688 294.091 29.0313 293.054 29.0313ZM293.054 28.1688C293.397 28.1688 293.719 28.1032 294.019 27.9719C294.319 27.8344 294.56 27.6407 294.741 27.3907C295.079 26.9469 295.254 26.3218 295.266 25.5157C295.266 24.7157 295.091 24.0907 294.741 23.6407C294.56 23.3907 294.319 23.2 294.019 23.0688C293.719 22.9313 293.397 22.8657 293.054 22.8719C292.716 22.8657 292.394 22.9313 292.088 23.0688C291.788 23.2 291.547 23.3907 291.366 23.6407C291.029 24.0657 290.854 24.6907 290.841 25.5157C290.841 26.3157 291.016 26.9407 291.366 27.3907C291.547 27.6407 291.788 27.8344 292.088 27.9719C292.394 28.1094 292.716 28.175 293.054 28.1688ZM302.625 28.0282H303.131V29.6969H302.269V28.8907H297.553V29.6969H296.7V28.0282C297.319 28.0282 297.703 27.3969 297.853 26.1344L298.312 22.1407H302.625V28.0282ZM301.762 28.0282V23.0032H299.09L298.706 26.2375C298.606 27.1 298.4 27.6969 298.087 28.0282H301.762ZM309.814 28.0282H310.321V29.6969H309.458V28.8907H304.742V29.6969H303.889V28.0282C304.508 28.0282 304.892 27.3969 305.042 26.1344L305.502 22.1407H309.814V28.0282ZM308.952 28.0282V23.0032H306.28L305.896 26.2375C305.796 27.1 305.589 27.6969 305.277 28.0282H308.952ZM315.785 23.05H312.447V25.0657H315.222V25.9657H312.447V27.9813H315.785V28.8907H311.538V22.1407H315.785V23.05ZM322.173 24.2875C322.186 24.775 322.027 25.2188 321.695 25.6188C321.502 25.8688 321.255 26.0657 320.955 26.2094C320.655 26.3532 320.342 26.425 320.017 26.425H318.011V28.8907H317.102V22.1407H320.017C320.261 22.1407 320.492 22.1813 320.711 22.2625C321.098 22.3938 321.411 22.6094 321.648 22.9094C321.998 23.3094 322.173 23.7688 322.173 24.2875ZM320.964 25.0844C321.158 24.8344 321.252 24.5688 321.245 24.2875C321.233 23.9375 321.117 23.6438 320.898 23.4063C320.642 23.1375 320.345 23.0032 320.008 23.0032H318.011V25.5625H320.008C320.395 25.5625 320.714 25.4032 320.964 25.0844ZM322.489 28.8907L324.777 25.375L322.677 22.1407H323.764L325.574 25.0094H326.539V22.1407H327.458V25.0094H328.414L330.224 22.1407H331.311L329.211 25.375L331.499 28.8907H330.402L328.414 25.75H327.458V28.8907H326.539V25.75H325.574L323.586 28.8907H322.489ZM334.641 25.75H333.216V28.8907H332.298V22.1407H333.216V25.0094H334.641L336.451 22.1407H337.538L335.438 25.375L337.726 28.8907H336.629L334.641 25.75ZM342.573 28.8907L342.161 27.6625H339.114L338.711 28.8907H337.773L339.995 22.1407H341.289L343.511 28.8907H342.573ZM339.395 26.8094H341.88L340.633 23.0782L339.395 26.8094ZM351.874 22.1407V28.8907H350.965V23.05H347.243V28.8907H346.334V22.1407H351.874ZM358.446 24.2875C358.458 24.775 358.299 25.2188 357.968 25.6188C357.774 25.8688 357.527 26.0657 357.227 26.2094C356.927 26.3532 356.615 26.425 356.29 26.425H354.283V28.8907H353.374V22.1407H356.29C356.533 22.1407 356.765 22.1813 356.983 22.2625C357.371 22.3938 357.683 22.6094 357.921 22.9094C358.271 23.3094 358.446 23.7688 358.446 24.2875ZM357.236 25.0844C357.43 24.8344 357.524 24.5688 357.518 24.2875C357.505 23.9375 357.39 23.6438 357.171 23.4063C356.915 23.1375 356.618 23.0032 356.28 23.0032H354.283V25.5625H356.28C356.668 25.5625 356.986 25.4032 357.236 25.0844ZM363.805 22.1407H364.612V28.8907H363.683V23.8094L360.28 28.8907H359.465V22.1407H360.383V27.2219L363.805 22.1407ZM370.478 22.1407H371.387V28.8907H370.478V26.4532H367.019V28.8907H366.109V22.1407H367.019V25.5532H370.478V22.1407ZM377.311 22.1407V28.8907H376.411V26.425H374.47L373.279 28.8907H372.239L373.532 26.2375C373.195 26.0875 372.926 25.8813 372.726 25.6188C372.401 25.225 372.239 24.7813 372.239 24.2875C372.251 23.7563 372.429 23.2969 372.773 22.9094C373.011 22.6032 373.32 22.3875 373.701 22.2625C373.92 22.1813 374.154 22.1407 374.404 22.1407H377.311ZM376.411 25.5625V23.0032H374.404C374.067 23.0032 373.773 23.1375 373.523 23.4063C373.298 23.6438 373.179 23.9375 373.167 24.2875C373.161 24.5688 373.254 24.8344 373.448 25.0844C373.704 25.4032 374.023 25.5625 374.404 25.5625H376.411ZM383.618 22.1407V23.05H381.34V28.8907H380.431V23.05H378.162V22.1407H383.618ZM388.801 22.1407H389.608V28.8907H388.68V23.8094L385.276 28.8907H384.461V22.1407H385.38V27.2219L388.801 22.1407ZM395.53 22.1407V28.8907H394.63V26.425H392.69L391.499 28.8907H390.458L391.752 26.2375C391.415 26.0875 391.146 25.8813 390.946 25.6188C390.621 25.225 390.458 24.7813 390.458 24.2875C390.471 23.7563 390.649 23.2969 390.993 22.9094C391.23 22.6032 391.54 22.3875 391.921 22.2625C392.14 22.1813 392.374 22.1407 392.624 22.1407H395.53ZM394.63 25.5625V23.0032H392.624C392.287 23.0032 391.993 23.1375 391.743 23.4063C391.518 23.6438 391.399 23.9375 391.387 24.2875C391.38 24.5688 391.474 24.8344 391.668 25.0844C391.924 25.4032 392.243 25.5625 392.624 25.5625H394.63ZM404.14 24.2875C404.153 24.775 403.993 25.2188 403.662 25.6188C403.468 25.8688 403.221 26.0657 402.921 26.2094C402.621 26.3532 402.309 26.425 401.984 26.425H399.978V28.8907H399.068V22.1407H401.984C402.228 22.1407 402.459 22.1813 402.678 22.2625C403.065 22.3938 403.378 22.6094 403.615 22.9094C403.965 23.3094 404.14 23.7688 404.14 24.2875ZM402.931 25.0844C403.124 24.8344 403.218 24.5688 403.212 24.2875C403.199 23.9375 403.084 23.6438 402.865 23.4063C402.609 23.1375 402.312 23.0032 401.974 23.0032H399.978V25.5625H401.974C402.362 25.5625 402.681 25.4032 402.931 25.0844ZM409.406 23.05H406.068V25.0657H408.843V25.9657H406.068V27.9813H409.406V28.8907H405.159V22.1407H409.406V23.05ZM417.004 22.1407H417.913V28.8907H410.723V22.1407H411.632V27.9813H413.863V22.1407H414.773V27.9813H417.004V22.1407ZM423.662 23.05H420.324V25.0657H423.099V25.9657H420.324V27.9813H423.662V28.8907H419.415V22.1407H423.662V23.05ZM429.347 22.1407H430.257V28.8907H429.347V26.4532H425.888V28.8907H424.978V22.1407H425.888V25.5532H429.347V22.1407ZM436.095 22.1407H436.902V28.8907H435.974V23.8094L432.57 28.8907H431.755V22.1407H432.674V27.2219L436.095 22.1407ZM441.699 20.2657H442.431C442.431 20.6282 442.302 20.9375 442.046 21.1938C441.79 21.45 441.481 21.5782 441.118 21.5782C440.756 21.5782 440.443 21.45 440.181 21.1938C439.924 20.9375 439.796 20.6282 439.796 20.2657H440.527C440.527 20.4282 440.584 20.5688 440.696 20.6875C440.815 20.8 440.956 20.8563 441.118 20.8563C441.281 20.8563 441.418 20.8 441.531 20.6875C441.643 20.5688 441.699 20.4282 441.699 20.2657ZM442.74 22.1407H443.546V28.8907H442.618V23.8094L439.215 28.8907H438.399V22.1407H439.318V27.2219L442.74 22.1407Z" fill="#646B7D"/>
<defs>
<clipPath id="clip0_101_149">
<rect width="35" height="35" fill="white"/>
</clipPath>
</defs>
</svg>
